<svg width="175" height="64" viewBox="0 0 175 64" fill="none" xmlns="http://www.w3.org/2000/svg"><path d="M101.046 10.5305H97.9027L97.2325 12.7819H95.5303L98.1577 4.44691H100.827L103.466 12.7819H101.722L101.046 10.5305ZM98.3416 9.0156H100.583L99.7176 6.11751H99.2075L98.3416 9.0156Z" fill="#E53151"/><path d="M106.354 6.00465V12.7888H104.634V4.45381H110.589V6.00465H106.354Z" fill="#E53151"/><path d="M118.24 11.232V12.7828H112.007V4.45381H118.11V6.00465H113.727V7.75308H117.137V9.26799H113.727V11.232H118.24Z" fill="#E53151"/><path d="M126.81 4.45381V12.7888H125.09V9.29793H121.437V12.7888H119.717V4.45381H121.437V7.69919H125.09V4.45381H126.81Z" fill="#E53151"/><path d="M134.799 5.9807H132.231V12.7888H130.511V5.9807H127.943V4.45381H134.799V5.9807Z" fill="#E53151"/><path d="M142.883 10.1241C142.628 11.7827 141.371 12.9383 139.438 12.9383C136.917 12.9383 135.482 11.166 135.482 8.62114C135.482 6.07633 136.929 4.30395 139.438 4.30395C141.276 4.30395 142.516 5.35181 142.8 6.88469H140.997C140.802 6.22004 140.256 5.85479 139.438 5.85479C137.955 5.85479 137.255 7.07031 137.255 8.62114C137.255 10.16 137.961 11.3875 139.438 11.3875C140.327 11.3875 140.926 10.9205 141.092 10.1241H142.883Z" fill="#E53151"/><path d="M150.481 5.9807H147.913V12.7888H146.193V5.9807H143.625V4.45381H150.481V5.9807Z" fill="#E53151"/><path d="M158.446 10.3697C158.446 11.7589 157.557 12.7888 155.6 12.7888H151.62V4.45381H155.493C157.32 4.45381 158.209 5.47174 158.209 6.65732C158.209 7.41777 157.871 8.07044 157.343 8.33989V8.57341C157.936 8.81891 158.446 9.54343 158.446 10.3697ZM156.448 6.81899C156.448 6.20225 156.056 5.89687 155.279 5.89687H153.346V7.75308H155.291C156.062 7.75308 156.448 7.45369 156.448 6.81899ZM156.679 10.2739C156.679 9.57337 156.252 9.2141 155.374 9.2141H153.352V11.3038H155.35C156.205 11.3038 156.679 10.9745 156.679 10.2739Z" fill="#E53151"/><path d="M167.651 8.62114C167.651 11.0702 166.24 12.9383 163.63 12.9383C161.021 12.9383 159.609 11.0702 159.609 8.62114C159.609 6.17214 161.021 4.30395 163.63 4.30395C166.24 4.30395 167.651 6.16615 167.651 8.62114ZM165.884 8.62114C165.884 7.08228 165.178 5.85479 163.63 5.85479C162.094 5.85479 161.376 7.08228 161.376 8.62114C161.376 10.16 162.094 11.3875 163.63 11.3875C165.178 11.3875 165.884 10.16 165.884 8.62114Z" fill="#E53151"/><path d="M97.8908 19.8543V25.6804H98.1221L101.23 19.8543H103.484V28.1893H101.865V22.2375H101.633L98.4543 28.1893H96.2776V19.8543H97.8908Z" fill="#E53151"/><path d="M112.493 19.8543V28.1893H110.773V24.6984H107.119V28.1893H105.399V19.8543H107.119V23.0997H110.773V19.8543H112.493Z" fill="#E53151"/><path d="M121.502 19.8543V28.1893H119.782V24.6984H116.129V28.1893H114.409V19.8543H116.129V23.0997H119.782V19.8543H121.502Z" fill="#E53151"/><path d="M131.063 24.0216C131.063 26.4706 129.651 28.3388 127.042 28.3388C124.432 28.3388 123.021 26.4706 123.021 24.0216C123.021 21.5726 124.432 19.7044 127.042 19.7044C129.651 19.7044 131.063 21.5666 131.063 24.0216ZM129.296 24.0216C129.296 22.4828 128.59 21.2553 127.042 21.2553C125.506 21.2553 124.788 22.4828 124.788 24.0216C124.788 25.5605 125.506 26.788 127.042 26.788C128.59 26.788 129.296 25.5605 129.296 24.0216Z" fill="#E53151"/><path d="M139.414 25.7702C139.414 27.1594 138.524 28.1893 136.567 28.1893H132.587V19.8543H136.46C138.287 19.8543 139.177 20.8722 139.177 22.0578C139.177 22.8183 138.839 23.4709 138.311 23.7404V23.9739C138.904 24.2194 139.414 24.9439 139.414 25.7702ZM137.415 22.2195C137.415 21.6027 137.024 21.2974 136.247 21.2974H134.313V23.1536H136.259C137.03 23.1536 137.415 22.8542 137.415 22.2195ZM137.646 25.6744C137.646 24.9739 137.219 24.6146 136.342 24.6146H134.319V26.7043H136.318C137.172 26.7043 137.646 26.375 137.646 25.6744Z" fill="#E53151"/><path d="M145.73 25.932H142.587L141.917 28.1834H140.215L142.842 19.8484H145.511L148.15 28.1834H146.407L145.73 25.932ZM143.02 24.4171H145.262L144.396 21.519H143.886L143.02 24.4171Z" fill="#E53151"/><path d="M155.777 28.1893H149.313V19.8543H151.033V26.6385H154.55V19.8543H156.27V26.6385H157.45V30.2312H155.772V28.1893H155.777Z" fill="#E53151"/><path d="M160.297 19.8543V25.6804H160.528L163.636 19.8543H165.89V28.1893H164.271V22.2375H164.039L160.86 28.1893H158.684V19.8543H160.297Z" fill="#E53151"/><path d="M169.407 19.854V25.6801H169.638L172.746 19.854H175V28.189H173.381V22.2372H173.15L169.971 28.189H167.794V19.854H169.407ZM173.583 17.6325C173.488 18.7403 172.705 19.4289 171.4 19.4289C170.095 19.4289 169.306 18.7403 169.217 17.6325H170.487C170.534 18.0277 170.831 18.3571 171.4 18.3571C171.957 18.3571 172.254 18.0397 172.313 17.6325H173.583Z" fill="#E53151"/><path d="M98.0036 36.8056V43.5898H96.2836V35.2548H102.238V36.8056H98.0036Z" fill="#E53151"/><path d="M111.105 39.4221C111.105 41.8711 109.693 43.7393 107.084 43.7393C104.474 43.7393 103.063 41.8711 103.063 39.4221C103.063 36.9731 104.474 35.1049 107.084 35.1049C109.693 35.1049 111.105 36.9671 111.105 39.4221ZM109.338 39.4221C109.338 37.8832 108.632 36.6557 107.084 36.6557C105.548 36.6557 104.83 37.8832 104.83 39.4221C104.83 40.961 105.548 42.1885 107.084 42.1885C108.632 42.1885 109.338 40.961 109.338 39.4221Z" fill="#E53151"/><path d="M119.385 37.9014C119.385 39.584 118.288 40.5959 116.402 40.5959H114.355V43.5838H112.635V35.2548H116.407C118.288 35.2548 119.385 36.2428 119.385 37.9014ZM117.617 37.9253C117.617 37.1888 117.226 36.7817 116.158 36.7817H114.355V39.069H116.158C117.226 39.069 117.617 38.6499 117.617 37.9253Z" fill="#E53151"/><path d="M128.554 39.4221C128.554 41.8711 127.143 43.7393 124.533 43.7393C121.923 43.7393 120.512 41.8711 120.512 39.4221C120.512 36.9731 121.923 35.1049 124.533 35.1049C127.143 35.1049 128.554 36.9671 128.554 39.4221ZM126.787 39.4221C126.787 37.8832 126.081 36.6557 124.533 36.6557C122.997 36.6557 122.279 37.8832 122.279 39.4221C122.279 40.961 122.997 42.1885 124.533 42.1885C126.081 42.1885 126.787 40.961 126.787 39.4221Z" fill="#E53151"/><path d="M137.89 42.033V45.6256H136.211V43.5898H130.79V45.6316H129.112V42.039H129.966C130.523 41.033 130.95 39.5181 130.95 37.0871V35.2548H136.709V42.033H137.89ZM135.031 36.8056H132.546V37.5421C132.546 39.6438 132.19 41.1348 131.715 42.039H135.037V36.8056H135.031Z" fill="#E53151"/><path d="M143.892 41.3325H140.748L140.078 43.5839H138.376L141.003 35.2489H143.672L146.312 43.5839H144.568L143.892 41.3325ZM141.181 39.8176H143.423L142.557 36.9195H142.047L141.181 39.8176Z" fill="#E53151"/><path d="M96.2836 50.6553H98.9763L100.317 53.9845H100.548L101.888 50.6553H104.534V58.9903H102.926V52.4876H102.695L101.194 56.2H99.6227L98.1222 52.4876H97.8909V58.9903H96.2836V50.6553Z" fill="#E53151"/><path d="M114.1 54.8233C114.1 57.2723 112.689 59.1405 110.079 59.1405C107.469 59.1405 106.058 57.2723 106.058 54.8233C106.058 52.3743 107.469 50.5061 110.079 50.5061C112.689 50.5061 114.1 52.3683 114.1 54.8233ZM112.333 54.8233C112.333 53.2844 111.627 52.0569 110.079 52.0569C108.543 52.0569 107.825 53.2844 107.825 54.8233C107.825 56.3621 108.543 57.5896 110.079 57.5896C111.627 57.5896 112.333 56.3621 112.333 54.8233Z" fill="#E53151"/><path d="M122.635 56.3262C122.38 57.9848 121.123 59.1405 119.189 59.1405C116.668 59.1405 115.233 57.3681 115.233 54.8233C115.233 52.2785 116.68 50.5061 119.189 50.5061C121.028 50.5061 122.267 51.5539 122.552 53.0868H120.749C120.553 52.4222 120.008 52.0569 119.189 52.0569C117.706 52.0569 117.007 53.2724 117.007 54.8233C117.007 56.3621 117.712 57.5896 119.189 57.5896C120.079 57.5896 120.678 57.1226 120.844 56.3262H122.635Z" fill="#E53151"/><path d="M124.153 50.6553H125.873V53.9127H127.783L129.343 50.6553H131.122L129.224 54.709L131.223 58.9963H129.444L127.789 55.4934H125.867V58.9963H124.147V50.6553H124.153Z" fill="#E53151"/><path d="M139.254 56.5712C139.254 57.9604 138.364 58.9903 136.407 58.9903H132.427V50.6553H136.3C138.127 50.6553 139.016 51.6732 139.016 52.8588C139.016 53.6192 138.678 54.2719 138.15 54.5414V54.7749C138.744 55.0204 139.254 55.7449 139.254 56.5712ZM137.249 53.0205C137.249 52.4037 136.858 52.0983 136.081 52.0983H134.147V53.9546H136.092C136.869 53.9546 137.249 53.6552 137.249 53.0205ZM137.48 56.4814C137.48 55.7808 137.053 55.4216 136.175 55.4216H134.153V57.5113H136.152C137.012 57.5053 137.48 57.176 137.48 56.4814Z" fill="#E53151"/><path d="M140.802 58.9903V50.6553H142.522V53.4815H144.242C146.175 53.4815 147.308 54.5234 147.308 56.2239C147.308 57.9544 146.175 58.9903 144.242 58.9903H140.802ZM145.541 56.2359C145.541 55.4515 145.125 55.0084 143.981 55.0084H142.522V57.4574H143.981C145.125 57.4574 145.541 57.0263 145.541 56.2359ZM149.947 50.6553V58.9903H148.227V50.6553H149.947Z" fill="#E53151"/><path fill-rule="evenodd" clip-rule="evenodd" d="M43.0171 54.4278C42.7087 53.9428 42.4596 53.2602 42.169 52.6554C41.5581 51.362 42.1571 51.6135 41.7775 50.8651C41.3564 50.0387 41.1429 50.8471 40.0753 49.2004C39.8677 48.8711 39.4407 49.0148 39.3932 49.8052C39.3399 50.5896 40.6447 51.3321 41.2437 53.2422C41.8428 55.1523 42.341 55.3739 41.8487 56.5475C41.3683 57.7211 38.9899 57.6492 38.9899 57.6492C40.8463 59.6012 44.6244 56.9487 43.0171 54.4278ZM23.2609 52.1764C20.6987 49.5956 21.6299 49.8531 23.2609 47.5538C24.4649 45.8473 30.3485 44.3384 33.314 43.6797L33.2547 43.4043C31.7541 43.4701 29.5003 43.554 27.2406 43.548C23.3677 43.548 21.8019 42.057 20.7995 42.2486C16.9503 42.9791 19.6845 47.4341 15.171 46.7993C10.6516 46.1706 10.7998 50.895 10.7998 50.895C12.0809 48.2664 13.4095 48.6376 14.4296 48.5897C15.6099 48.5358 16.7664 49.416 18.4271 48.0149C18.7889 47.7095 20.4437 45.015 20.2064 46.3622C20.07 47.1466 19.3939 48.0508 18.8542 48.6675C18.4686 49.1106 18.2433 49.4459 19.0321 49.889C19.3108 50.0507 19.6786 50.2603 20.153 50.5357C21.9798 51.5956 21.6773 52.8051 20.4852 52.7392C19.637 52.6913 18.6347 52.2722 17.7925 52.1824C17.4485 52.1464 17.063 52.2901 17.6027 52.5476C17.8874 52.6853 18.2077 52.8829 18.4864 53.1644C19.8268 54.5176 18.2255 53.9847 22.0688 53.7751C22.8872 53.7272 23.4685 53.6494 23.8777 53.5655C25.3961 53.2302 23.593 52.5177 23.2609 52.1764ZM25.8409 19.6028C24.7259 20.3273 22.8932 19.9681 22.8932 19.9681C23.1363 20.3153 24.4708 20.7285 25.141 20.7165C25.7223 20.7045 26.2383 20.471 26.6949 19.9681C27.6914 18.8723 27.288 17.04 27.0449 16.8125C27.0389 16.8065 26.9263 18.8962 25.8409 19.6028ZM24.1505 13.7048L24.6191 13.5012C24.6191 13.5012 24.2573 12.4414 24.2336 11.5013C24.2099 10.5612 24.5954 8.47748 24.5954 8.47748H24.1505C24.1505 8.47748 23.9489 10.0104 23.682 11.3456C23.421 12.6869 22.7271 12.4234 22.3831 12.3995C22.045 12.3755 19.3346 11.9803 19.3346 11.9803V12.3815C19.3346 12.3815 19.5066 12.4055 20.8766 12.6031C22.2526 12.8067 24.1505 13.7048 24.1505 13.7048ZM21.3037 7.13023C21.3037 7.13023 21.6773 7.25597 22.389 7.27394C23.1067 7.28591 23.4566 6.62127 23.4566 6.62127C21.7129 6.44762 21.2088 5.82489 21.2088 5.82489C21.2088 5.82489 22.8694 5.74106 23.7057 5.62729C24.542 5.51353 26.0722 5.10037 26.0722 5.10037C26.0722 5.10037 26.0129 6.48355 26.001 7.28591C25.9951 8.08828 27.0152 7.91463 27.3592 7.80685C27.7863 7.66913 27.8574 6.07039 27.9286 4.69919C27.982 3.6633 27.2228 3.65731 26.7839 3.83694C26.1434 4.1064 24.9275 4.73511 23.6108 5.14228C22.2941 5.54347 20.2361 5.25006 20.2361 5.25006L20.1234 5.68118L21.8552 6.753L21.3037 7.13023ZM53.2303 40.4343C52.6313 38.2907 50.7274 33.9196 49.4285 31.9257C48.1178 29.9317 47.4476 31.3628 46.9316 31.8119C46.4096 32.261 44.8794 34.8597 44.2092 31.5125C43.539 28.1653 40.1109 25.2613 40.1109 25.2613C40.8167 27.7821 40.6328 29.6264 40.443 31.249C40.2592 32.8658 40.6684 33.4286 40.6684 34.4046C40.6684 35.3866 37.7622 36.0273 37.608 36.7758C37.4597 37.5302 41.9317 40.6199 46.1961 37.5183C47.4772 36.5842 48.272 40.2008 48.6812 41.1768C49.0905 42.1588 48.272 42.4582 49.2387 43.5899C50.2114 44.7156 49.4641 45.6677 49.4641 46.3742C49.4641 47.0329 51.3858 48.6915 51.7416 48.3322C52.3644 47.7095 50.9587 44.003 50.4012 42.7276C49.8378 41.4463 48.9481 37.3087 48.3135 36.177C47.9517 35.5303 46.0775 35.9914 46.0775 35.9914L45.947 35.4884C45.947 35.4884 46.208 35.1531 46.4452 34.9016C48.3847 32.8658 48.2364 33.6981 50.247 36.183C52.2576 38.6679 49.8378 39.6439 51.5874 40.9253C53.3371 42.2007 53.8234 42.5779 53.2303 40.4343ZM26.2027 8.8607C25.7638 8.98046 24.6962 9.1541 25.1944 11.639C25.6926 14.124 27.0212 13.5192 27.3829 13.2018C27.3829 13.2018 25.574 13.0102 25.5265 10.8606C25.4732 8.70502 27.9405 9.10021 27.9405 9.10021C27.7863 8.93255 26.9025 8.67508 26.2027 8.8607ZM27.5609 15.3575C24.5301 15.5311 23.4685 14.4353 21.3926 13.4294C19.3108 12.4174 17.5256 13.1599 17.2113 13.633C18.178 13.6928 19.2753 14.0821 21.357 15.3994C25.5621 18.052 27.5609 15.3575 27.5609 15.3575ZM1.67794 38.2009C2.91159 37.8596 2.91159 36.9375 2.92938 36.7458C3.1251 37.0093 3.19628 37.3027 3.20221 37.674C3.74786 36.9554 3.61738 35.71 2.27697 34.9675C2.27697 34.9675 2.35407 36.6021 1.31615 37.177C0.236701 37.7757 0.0647015 38.159 0.00539132 38.7518C-0.0183327 39.0392 0.0350464 39.3445 0.189253 39.5781C0.331597 39.8116 0.568838 39.9792 0.794216 40.0331C0.46801 39.59 0.402769 38.5482 1.67794 38.2009ZM28.4031 25.7103C28.4031 24.7104 28.6581 24.2254 28.9309 24.2134C29.7672 24.1775 29.9511 25.375 29.9629 25.7044C29.9985 26.6624 29.2987 27.1175 29.2987 27.1175C29.8977 27.1714 30.3722 26.3331 30.4493 25.8002C30.562 25.0158 30.4256 24.7403 30.1468 24.2194C30.1468 24.2194 31.9024 25.9319 31.7126 27.83C31.4991 29.9796 29.097 31.1113 29.097 31.1113C29.8087 31.3688 31.8727 31.1592 33.1894 29.4647C33.9189 28.5306 34.2392 27.1055 33.3555 24.8601C32.5548 22.8242 31.0305 21.0997 32.6497 17.1897C34.2273 13.3815 38.4146 12.8845 40.9294 14.6928C41.0955 14.8126 41.1844 14.9503 41.2437 15.1C41.4098 15.5491 40.2295 16.1419 40.7455 16.4113C41.1014 16.5969 41.564 16.6448 41.9614 16.9562C42.3291 17.2376 42.4003 17.4771 42.5901 17.6508C42.7324 17.7825 42.7917 17.8065 42.9281 17.8065C41.7894 16.4592 41.5996 14.9323 41.4157 13.3096C40.5201 13.0761 39.1026 12.3456 37.7029 12.1779C36.8251 12.0761 34.7018 11.9324 32.5667 12.9923C30.1646 14.1838 27.6261 16.4951 27.6261 21.8602C27.6261 24.1715 28.4031 25.8421 28.4031 25.7103ZM14.6194 29.291C16.0725 30.8419 17.6383 30.2192 18.3382 30.303C19.038 30.3868 19.8387 32.1891 19.4176 33.9436C18.9906 35.692 18.8245 35.3926 18.5339 36.4884C18.1721 37.8715 19.8684 38.8655 19.471 40.1409C19.3642 40.4942 19.1151 41.0032 19.4117 41.4043C19.8684 42.0271 20.6157 41.2067 21.5528 41.3445C22.2882 41.4522 22.9347 41.2008 23.255 41.0091C23.1423 40.4702 21.0249 40.7996 20.5504 39.9254C20.3428 39.5421 19.7853 35.5603 21.013 33.7819C22.1399 32.1532 21.0961 31.6442 20.3191 30.3269C21.3808 29.7401 23.8659 28.4887 23.8659 28.4887C24.6784 29.4347 25.2596 30.2551 25.7519 31.3987C26.0129 31.9676 26.1967 32.5783 26.173 33.1891C26.1908 33.8118 25.9595 34.4226 25.5681 34.9794C26.0841 34.9016 26.5585 33.9675 26.7009 33.249C26.8373 32.5304 26.7365 31.788 26.5407 31.1053C25.8231 28.8839 24.1505 27.2971 24.1505 27.2971C24.1505 27.2971 21.8908 28.0815 19.7853 29.2312C19.121 27.9797 18.4568 28.2013 17.6324 28.2731C16.8139 28.345 16.3157 27.4708 16.3157 27.4708C16.9503 27.6743 17.8399 27.7103 19.0262 27.2372C21.6951 26.1654 20.6868 23.9499 20.6868 23.9499C20.6868 23.9499 20.7402 25.5606 19.1507 25.7882C18.1602 25.9259 15.5684 25.2792 15.5684 25.2792C15.5684 25.2792 17.6502 25.0337 18.0713 23.8302C18.6466 22.1775 20.3013 22.8242 20.3013 22.8242C20.3013 22.8242 19.4235 21.7764 18.0594 22.5967C17.235 23.0997 15.859 23.2613 14.1746 22.3991C12.4902 21.5369 11.8793 22.9619 11.5412 22.9979C11.2031 23.0398 10.9362 22.4769 11.126 21.8901C11.3158 21.3033 13.2493 20.7525 16.1615 20.6387C18.0831 20.5668 19.0261 20.9441 19.4473 21.2135C19.4532 21.0518 18.9313 20.3333 17.3477 19.9441C15.7641 19.5489 15.8709 18.8962 15.942 17.7705C16.0132 16.6448 14.394 17.0939 13.9967 16.9502C13.6052 16.8065 13.967 15.9263 13.967 15.9263C13.3976 16.088 12.9647 16.555 12.9884 17.2436C13.0002 17.7047 13.4391 18.034 13.8721 18.2496C14.3051 18.4651 14.3762 18.8603 13.5933 19.3214C12.9587 19.6926 12.0513 20.1776 10.8354 20.7046C8.12495 21.8782 11.5056 23.896 10.3194 24.5128C9.12729 25.1295 8.83667 25.9379 8.77143 26.381C8.62315 27.3809 9.28743 28.1294 9.28743 28.1294C11.6183 26.848 13.1663 27.7402 14.6194 29.291ZM15.5921 52.3381C14.6669 52.0806 13.6764 52.0387 12.6918 52.1704C11.6776 52.3261 10.8591 52.6135 10.0051 52.5716C9.15695 52.5536 8.36812 52.2183 7.85212 51.6016C7.62081 51.3321 7.44881 51.0147 7.33019 50.6734C7.73943 49.8232 8.53419 48.9609 9.94577 48.1646C14.8922 45.3922 13.2553 42.2606 12.9469 38.632C12.7927 36.7878 13.1604 35.1112 14.0975 34.2609C15.4201 33.0574 17.6502 33.2071 17.6502 33.2071C17.3951 32.8777 14.4118 31.7999 12.1402 32.4706C9.7026 33.1831 9.25184 34.9675 8.83074 36.2309C8.46895 37.3267 7.99447 38.62 5.84151 39.5302C2.21766 41.063 2.46083 43.9432 2.46083 43.9432C2.46083 43.9432 1.14415 41.099 4.66717 38.6979C9.13915 35.6501 7.41916 33.3089 8.91377 31.9077C10.0822 30.8179 11.4819 30.9916 13.6111 31.5784C13.2256 31.1233 7.5615 28.7222 6.90316 33.8178C6.34564 38.147 2.24138 37.5422 1.53559 41.6199C1.03739 44.512 3.74786 46.9311 3.74786 46.9311C3.74786 46.9311 1.58304 42.554 5.84151 40.7816C8.78922 39.5601 10.4677 38.147 10.9066 36.7578C10.8829 37.2009 10.8829 37.674 10.9007 38.1949C10.9481 40.1529 11.8733 41.6858 11.5887 44.4402C11.4285 45.9551 8.68839 47.47 7.15226 49.0268C7.20564 48.3262 7.3895 47.6496 7.73943 47.0868C8.12495 46.488 8.75957 45.8473 9.03832 45.1407C9.35267 44.4461 9.40012 43.7037 9.29336 43.1049C9.21032 42.6139 9.03832 42.2307 8.86039 41.9013C8.78922 41.9313 8.72991 41.9552 8.66467 41.9792C8.97308 42.7157 9.14508 43.8234 8.54605 44.9072C8.2495 45.5299 7.72164 45.967 7.15819 46.6916C6.64813 47.4101 6.29227 48.3202 6.24482 49.3022C6.23295 49.6136 6.26261 49.937 6.31599 50.2603C5.6873 51.9189 6.40495 54.0506 6.97433 55.0445C7.6564 56.2181 8.30288 57.0864 7.96481 58.4516C7.62674 59.8168 8.80702 59.3438 9.64329 59.3617C9.90425 59.3677 10.1771 59.3677 10.4262 59.3677C10.9718 59.3677 11.1972 58.9665 10.8651 58.4216C10.2838 57.4816 9.3586 56.0924 8.61722 55.4996C7.95888 54.9667 6.88537 53.5715 6.98026 51.9488C7.95295 53.1165 9.04426 53.4817 9.9517 53.5655C11.0134 53.6614 12.0157 53.2542 12.8342 53.1284C13.6942 52.9907 14.566 53.0147 15.3667 53.2123C16.1615 53.4099 16.8791 53.7811 17.4366 54.2661C18.0001 54.7571 18.3144 55.4038 18.4746 56.0265C18.783 57.254 17.9408 58.4097 17.2646 59.0144C17.3062 59.0623 17.3595 59.1043 17.407 59.1462C18.5932 58.4276 19.2278 57.1702 18.9965 55.6733C18.7711 54.2062 17.4485 52.7931 15.5921 52.3381ZM45.5318 49.8651C45.0752 48.6196 44.1974 49.1585 43.8059 49.0208C43.4145 48.8831 42.9103 48.3921 42.7443 47.0688C42.5782 45.7455 41.4691 46.458 41.4691 46.458C41.4691 46.458 42.7561 49.0627 43.2781 50.4519C43.8 51.8411 44.2389 50.7633 44.8676 51.5237C45.5081 52.2842 45.431 56.1942 45.0692 57.4516C44.5888 59.1222 43.6221 60.2958 42.6375 61.0862C43.5331 60.9784 45.2056 59.2061 45.6742 58.0444C46.2139 56.7091 45.9055 55.4757 45.9055 55.4757L46.6587 55.4098L46.1961 54.2003L46.9256 54.0925C46.9316 54.0925 45.9885 51.1046 45.5318 49.8651ZM36.7362 47.1227C35.5677 47.1526 34.2214 47.5718 32.8691 46.3083C31.1136 44.6737 29.2868 45.7156 29.2868 45.7156C29.2868 45.7156 30.4434 46.8772 29.7969 47.3562C28.7471 48.1346 29.5181 49.0508 29.4291 49.41C29.3342 49.7633 28.2845 49.8411 26.517 49.0268C25.5147 48.5598 24.5954 48.5777 23.9963 48.6735C23.5396 48.7514 23.6939 49.0807 23.7947 49.1765C23.7947 49.1765 24.5361 49.8591 24.8267 50.0507C25.058 50.2004 25.6511 50.6914 25.8705 50.5297C26.0841 50.3741 25.6155 49.4998 25.6155 49.4998C25.6155 49.4998 29.0911 50.6734 30.3069 50.6734C31.7185 50.6734 30.3959 48.3023 31.5109 48.1885C32.0684 48.1286 32.7683 49.0148 33.9249 49.1765C34.7255 49.2963 35.5025 48.949 36.2913 48.7514C37.1335 48.5418 37.4538 49.5897 37.5665 50.5178C37.5843 50.6675 37.6139 51.0507 37.78 51.3321C38.0528 50.0088 38.4265 47.0808 36.7362 47.1227ZM36.8607 45.1647C36.4396 45.7814 36.7599 46.6616 37.8749 46.991C38.8773 47.2844 39.5415 47.5957 40.0338 48.0927C40.7574 48.8172 41.0895 48.913 41.2675 48.907L10.4618 5.83088L10.0525 6.13027C10.0525 6.13027 27.8278 30.9856 35.7338 42.045C36.0244 42.4522 37.2284 44.6078 36.8607 45.1647ZM37.7207 18.9801C36.9675 18.2496 37.1869 16.8125 37.1869 16.8125C36.8666 17.0819 36.4633 18.9621 37.1335 19.9142C37.9105 21.0219 38.6104 21.1716 39.2272 22.3751C39.3043 22.2015 39.2035 21.7764 39.0433 21.453C38.8002 20.962 38.7053 20.5549 39.2806 20.3872C40.8997 19.9142 42.4003 22.2614 43.2781 22.2255C44.5117 22.1716 44.7905 21.0578 44.8439 20.998C44.8972 20.9441 44.1974 21.483 43.3967 21.3872C42.1393 21.2315 41.5581 19.8064 40.1406 19.519C39.239 19.3333 38.4739 19.7166 37.7207 18.9801ZM16.2623 56.3678C15.8412 56.9007 15.1888 57.0744 14.8092 56.769C14.4711 56.4996 14.4652 55.9307 14.7558 55.4397C14.5126 55.4996 14.2991 55.6373 14.1568 55.8409C13.795 56.3678 14.0026 57.1522 14.6313 57.5953C15.26 58.0384 16.0606 57.9666 16.4224 57.4396C16.6775 57.0744 16.6478 56.5834 16.3928 56.1702C16.3572 56.2361 16.3157 56.302 16.2623 56.3678Z" fill="#E53151"/><path d="M84.8553 1.67647e-05L62.0891 63.1713L62.8638 63.4558L85.63 0.284581L84.8553 1.67647e-05Z" fill="#E53151"/></svg>