<svg width="231" height="53" viewBox="0 0 231 53" fill="none" xmlns="http://www.w3.org/2000/svg"><path d="M62.5509 9.41978V9.25937C62.7603 9.17917 62.9697 9.06688 63.1468 8.92252C63.2918 8.7942 63.4367 8.61775 63.5656 8.40922C63.6944 8.2007 63.7588 7.91197 63.7588 7.57511V6.69288C63.7588 6.21167 64.0004 5.97106 64.4836 5.97106H64.9667V3.72538H64.4031C63.3079 3.72538 62.5187 3.96599 62.0195 4.46325C61.5202 4.96051 61.2625 5.73045 61.2625 6.77309V7.33451C61.2625 7.97613 60.9726 8.29694 60.3767 8.29694H57.4778V3.88579H54.9815V15.1142H57.4778V10.5426H60.5378C61.1337 10.5426 61.4236 10.8634 61.4236 11.505V12.2269C61.4236 13.2695 61.6813 14.0395 62.1805 14.5367C62.6798 15.034 63.4689 15.2746 64.5641 15.2746H65.1278V13.0289H64.6446C64.1615 13.0289 63.9199 12.7883 63.9199 12.3071V11.2644C63.9199 10.8955 63.8555 10.5747 63.7105 10.3341C63.5656 10.0935 63.4045 9.91703 63.2274 9.77267C63.0341 9.61226 62.8086 9.49998 62.5509 9.41978Z" fill="#D2D6E3"/><path d="M70.9251 10.5426L71.9719 6.13147H73.6629L74.7098 10.5426H70.9251ZM69.9587 3.88579L67.2208 15.1142H69.7977L70.3614 12.7883H75.2735L75.8372 15.1142H78.414L75.6761 3.88579H69.9587Z" fill="#D2D6E3"/><path d="M91.2152 8.05633C91.2152 7.47887 91.1024 6.93349 90.8931 6.42019C90.6676 5.92294 90.3455 5.4738 89.9428 5.08883C89.5402 4.7199 89.041 4.41513 88.4773 4.2066C87.8975 3.99807 87.2533 3.88579 86.5446 3.88579H81.1494V15.1142H83.6457V12.2269H86.5446C87.2533 12.2269 87.8975 12.1146 88.4773 11.9061C89.041 11.6975 89.5402 11.3928 89.9428 11.0078C90.3455 10.6389 90.6676 10.1897 90.8931 9.67643C91.1024 9.17917 91.2152 8.63379 91.2152 8.05633ZM88.7188 8.05633C88.7188 8.31298 88.6705 8.55359 88.5578 8.7942C88.4451 9.0348 88.3001 9.22729 88.123 9.40374C87.9297 9.58018 87.7042 9.72455 87.4304 9.82079C87.1566 9.93307 86.8667 9.9812 86.5446 9.9812H83.6457V6.13147H86.5446C86.8667 6.13147 87.1566 6.17959 87.4304 6.27583C87.7042 6.38811 87.9297 6.51644 88.123 6.69288C88.3001 6.86933 88.4451 7.07786 88.5578 7.31847C88.6705 7.55907 88.7188 7.79968 88.7188 8.05633Z" fill="#D2D6E3"/><path d="M93.4674 6.13147H97.0105V15.1142H99.5069V6.13147H103.05V3.88579H93.4674V6.13147Z" fill="#D2D6E3"/><path d="M107.731 10.5426L108.778 6.13147H110.469L111.516 10.5426H107.731ZM106.765 3.88579L104.027 15.1142H106.604L107.168 12.7883H112.08L112.643 15.1142H115.22L112.482 3.88579H106.765Z" fill="#D2D6E3"/><path d="M57.7194 32.4914L62.2288 25.2732H62.3899V32.4914H64.8862V21.263H62.1483L57.6388 28.4813H57.4778V21.263H54.9815V32.4914H57.7194Z" fill="#D2D6E3"/><path d="M68.435 21.263V32.4914H70.9313V28.0803H75.6824V32.4914H78.1787V21.263H75.6824V25.8346H70.9313V21.263H68.435Z" fill="#D2D6E3"/><path d="M81.7156 21.263V32.4914H84.2119V28.0803H88.9629V32.4914H91.4593V21.263H88.9629V25.8346H84.2119V21.263H81.7156Z" fill="#D2D6E3"/><path d="M106.914 26.8772C106.914 26.0271 106.753 25.2411 106.431 24.5032C106.109 23.7654 105.674 23.1237 105.11 22.5623C104.547 22.0169 103.902 21.5839 103.145 21.263C102.388 20.9422 101.583 20.7818 100.713 20.7818C99.8438 20.7818 99.0385 20.9422 98.2816 21.263C97.5246 21.5839 96.8804 22.0169 96.3168 22.5623C95.7531 23.1237 95.3182 23.7654 94.9961 24.5032C94.674 25.2411 94.513 26.0271 94.513 26.8772C94.513 27.7274 94.674 28.5134 94.9961 29.2512C95.3182 29.9891 95.7531 30.6307 96.3168 31.1761C96.8804 31.7375 97.5246 32.1706 98.2816 32.4914C99.0385 32.8122 99.8438 32.9726 100.713 32.9726C101.583 32.9726 102.388 32.8122 103.145 32.4914C103.902 32.1706 104.547 31.7375 105.11 31.1761C105.674 30.6307 106.109 29.9891 106.431 29.2512C106.753 28.5134 106.914 27.7274 106.914 26.8772ZM97.0093 26.8772C97.0093 26.3319 97.1059 25.8186 97.3153 25.3534C97.5085 24.8882 97.7823 24.4872 98.1205 24.1343C98.4588 23.7974 98.8453 23.5248 99.2962 23.3162C99.7311 23.1237 100.214 23.0275 100.713 23.0275C101.213 23.0275 101.696 23.1237 102.147 23.3162C102.582 23.5248 102.984 23.7974 103.323 24.1343C103.661 24.4872 103.918 24.8882 104.128 25.3534C104.321 25.8186 104.418 26.3319 104.418 26.8772C104.418 27.4226 104.321 27.9199 104.128 28.385C103.918 28.8502 103.661 29.2673 103.323 29.6041C102.984 29.957 102.582 30.2297 102.147 30.4222C101.696 30.6307 101.213 30.727 100.713 30.727C100.214 30.727 99.7311 30.6307 99.2962 30.4222C98.8453 30.2297 98.4588 29.957 98.1205 29.6041C97.7823 29.2673 97.5085 28.8502 97.3153 28.385C97.1059 27.9199 97.0093 27.4226 97.0093 26.8772Z" fill="#D2D6E3"/><path d="M112.472 23.5087H115.209C115.532 23.5087 115.789 23.605 115.983 23.7814C116.16 23.9579 116.256 24.1985 116.256 24.4712C116.256 24.7438 116.16 24.9845 115.983 25.1609C115.789 25.3373 115.532 25.4336 115.209 25.4336H112.472V23.5087ZM116.015 30.2457H112.472V27.6793H116.015C116.498 27.6793 116.868 27.8076 117.142 28.0482C117.416 28.2888 117.545 28.5936 117.545 28.9625C117.545 29.3314 117.416 29.6362 117.142 29.8768C116.868 30.1174 116.498 30.2457 116.015 30.2457ZM115.209 21.263H109.975V32.4914H116.015C116.659 32.4914 117.239 32.3952 117.754 32.2187C118.253 32.0423 118.688 31.8017 119.043 31.4969C119.381 31.1921 119.655 30.8392 119.848 30.4222C120.025 30.0212 120.122 29.5881 120.122 29.1229C120.122 28.8181 120.089 28.5294 120.009 28.2888C119.928 28.0482 119.832 27.8236 119.703 27.6311C119.574 27.4387 119.429 27.2622 119.268 27.1178C119.107 26.9735 118.946 26.8612 118.785 26.7489C118.398 26.5083 117.963 26.3319 117.464 26.2356V26.0752C117.722 25.995 117.947 25.8667 118.141 25.6902C118.318 25.5459 118.479 25.3373 118.624 25.0967C118.769 24.8561 118.833 24.5353 118.833 24.1503C118.833 23.7814 118.753 23.4285 118.575 23.0917C118.398 22.7548 118.157 22.434 117.851 22.1613C117.529 21.8886 117.142 21.6801 116.707 21.5037C116.256 21.3432 115.757 21.263 115.209 21.263Z" fill="#D2D6E3"/><path d="M125.919 27.9199L126.966 23.5087H128.657L129.704 27.9199H125.919ZM124.953 21.263L122.215 32.4914H124.791L125.355 30.1655H130.267L130.831 32.4914H133.408L130.67 21.263H124.953Z" fill="#D2D6E3"/><path d="M136.143 32.4914H144.357V34.3361H146.853V30.2457H145.565V21.263H143.068V30.2457H138.639V21.263H136.143V32.4914Z" fill="#D2D6E3"/><path d="M152.335 32.4914L156.844 25.2732H157.005V32.4914H159.501V21.263H156.764L152.254 28.4813H152.093V21.263H149.597V32.4914H152.335Z" fill="#D2D6E3"/><path d="M174.968 26.8772C174.968 26.0271 174.807 25.2411 174.485 24.5032C174.163 23.7654 173.728 23.1237 173.164 22.5623C172.601 22.0169 171.956 21.5839 171.2 21.263C170.443 20.9422 169.637 20.7818 168.768 20.7818C167.898 20.7818 167.093 20.9422 166.336 21.263C165.579 21.5839 164.935 22.0169 164.371 22.5623C163.807 23.1237 163.372 23.7654 163.05 24.5032C162.728 25.2411 162.567 26.0271 162.567 26.8772C162.567 27.7274 162.728 28.5134 163.05 29.2512C163.372 29.9891 163.807 30.6307 164.371 31.1761C164.935 31.7375 165.579 32.1706 166.336 32.4914C167.093 32.8122 167.898 32.9726 168.768 32.9726C169.637 32.9726 170.443 32.8122 171.2 32.4914C171.956 32.1706 172.601 31.7375 173.164 31.1761C173.728 30.6307 174.163 29.9891 174.485 29.2512C174.807 28.5134 174.968 27.7274 174.968 26.8772ZM165.063 26.8772C165.063 26.3319 165.16 25.8186 165.369 25.3534C165.563 24.8882 165.836 24.4872 166.175 24.1343C166.513 23.7974 166.899 23.5248 167.35 23.3162C167.785 23.1237 168.268 23.0275 168.768 23.0275C169.267 23.0275 169.75 23.1237 170.201 23.3162C170.636 23.5248 171.038 23.7974 171.377 24.1343C171.715 24.4872 171.973 24.8882 172.182 25.3534C172.375 25.8186 172.472 26.3319 172.472 26.8772C172.472 27.4226 172.375 27.9199 172.182 28.385C171.973 28.8502 171.715 29.2673 171.377 29.6041C171.038 29.957 170.636 30.2297 170.201 30.4222C169.75 30.6307 169.267 30.727 168.768 30.727C168.268 30.727 167.785 30.6307 167.35 30.4222C166.899 30.2297 166.513 29.957 166.175 29.6041C165.836 29.2673 165.563 28.8502 165.369 28.385C165.16 27.9199 165.063 27.4226 165.063 26.8772Z" fill="#D2D6E3"/><path d="M178.029 21.263V32.4914H180.526V28.0803H185.277V32.4914H187.773V21.263H185.277V25.8346H180.526V21.263H178.029Z" fill="#D2D6E3"/><path d="M191.31 21.263V32.4914H193.806V28.0803H198.557V32.4914H201.054V21.263H198.557V25.8346H193.806V21.263H191.31Z" fill="#D2D6E3"/><path d="M209.342 30.2457H207.087V26.8772H209.342C209.986 26.8772 210.485 27.0376 210.839 27.3584C211.178 27.6793 211.355 28.0803 211.355 28.5615C211.355 29.0427 211.178 29.4437 210.839 29.7645C210.485 30.0853 209.986 30.2457 209.342 30.2457ZM213.932 28.5615C213.932 28.0161 213.819 27.5028 213.609 27.0216C213.4 26.5564 213.094 26.1394 212.708 25.7865C212.305 25.4336 211.838 25.1449 211.29 24.9363C210.727 24.7278 210.115 24.6316 209.438 24.6316H207.087V21.263H204.591V32.4914H209.342C210.05 32.4914 210.694 32.3791 211.258 32.1706C211.822 31.9621 212.289 31.6894 212.691 31.3365C213.094 30.9836 213.4 30.5666 213.609 30.0853C213.819 29.6202 213.932 29.1069 213.932 28.5615ZM217.555 32.4914V21.263H215.059V32.4914H217.555Z" fill="#D2D6E3"/><path d="M222.947 32.4914L225.444 28.4813H225.605L228.101 32.4914H231L227.296 26.7168L230.517 21.263H227.698L225.605 24.9524H225.444L223.35 21.263H220.532L223.753 26.7168L220.048 32.4914H222.947Z" fill="#D2D6E3"/><path d="M65.0473 42.8108C65.0473 42.2334 64.9345 41.688 64.7252 41.1747C64.4997 40.6774 64.1776 40.2283 63.7749 39.8433C63.3723 39.4744 62.8731 39.1696 62.3094 38.9611C61.7296 38.7526 61.0854 38.6403 60.3767 38.6403H54.9815V49.8687H57.4778V46.9814H60.3767C61.0854 46.9814 61.7296 46.8691 62.3094 46.6606C62.8731 46.452 63.3723 46.1473 63.7749 45.7623C64.1776 45.3934 64.4997 44.9442 64.7252 44.4309C64.9345 43.9337 65.0473 43.3883 65.0473 42.8108ZM62.5509 42.8108C62.5509 43.0675 62.5026 43.3081 62.3899 43.5487C62.2772 43.7893 62.1322 43.9818 61.9551 44.1582C61.7618 44.3347 61.5363 44.4791 61.2625 44.5753C60.9887 44.6876 60.6988 44.7357 60.3767 44.7357H57.4778V40.886H60.3767C60.6988 40.886 60.9887 40.9341 61.2625 41.0303C61.5363 41.1426 61.7618 41.2709 61.9551 41.4474C62.1322 41.6238 62.2772 41.8324 62.3899 42.073C62.5026 42.3136 62.5509 42.5542 62.5509 42.8108Z" fill="#D2D6E3"/><path d="M77.0432 47.623H70.6011V45.3773H75.6742V43.1316H70.6011V40.886H77.0432V38.6403H68.1047V49.8687H77.0432V47.623Z" fill="#D2D6E3"/><path d="M94.3525 49.8687V38.6403H91.8562V47.623H88.3936V38.6403H85.8973V47.623H82.4347V38.6403H79.9383V49.8687H94.3525Z" fill="#D2D6E3"/><path d="M106.828 47.623H100.386V45.3773H105.46V43.1316H100.386V40.886H106.828V38.6403H97.89V49.8687H106.828V47.623Z" fill="#D2D6E3"/><path d="M109.724 38.6403V49.8687H112.22V45.4575H116.971V49.8687H119.467V38.6403H116.971V43.2119H112.22V38.6403H109.724Z" fill="#D2D6E3"/><path d="M125.742 49.8687L130.252 42.6504H130.413V49.8687H132.909V38.6403H130.171L125.662 45.8585H125.5V38.6403H123.004V49.8687H125.742Z" fill="#D2D6E3"/><path d="M141.45 37.325C141.821 37.325 142.159 37.2608 142.465 37.1325C142.771 37.0202 143.029 36.8438 143.254 36.6192C143.464 36.4107 143.641 36.138 143.77 35.8332C143.882 35.5284 143.947 35.2076 143.947 34.8387H142.336C142.336 35.0793 142.256 35.2878 142.078 35.4643C141.901 35.6407 141.692 35.7209 141.45 35.7209C141.209 35.7209 140.999 35.6407 140.822 35.4643C140.645 35.2878 140.565 35.0793 140.565 34.8387H138.954C138.954 35.2076 139.018 35.5284 139.147 35.8332C139.26 36.138 139.437 36.4107 139.663 36.6192C139.872 36.8438 140.146 37.0202 140.452 37.1325C140.758 37.2608 141.08 37.325 141.45 37.325ZM139.196 49.8687L143.705 42.6504H143.866V49.8687H146.362V38.6403H143.625L139.115 45.8585H138.954V38.6403H136.458V49.8687H139.196Z" fill="#D2D6E3"/><path fill-rule="evenodd" clip-rule="evenodd" d="M29.2179 25.996C29.9319 24.7431 30.3398 23.2932 30.3398 21.748C30.3398 17.0029 26.4931 13.1562 21.748 13.1562C17.0029 13.1562 13.1562 17.0029 13.1562 21.748C13.1562 23.2932 13.5641 24.7431 14.2781 25.996L11.9394 28.3347C10.6732 26.4528 9.93427 24.1867 9.93427 21.748C9.93427 15.2235 15.2234 9.93427 21.748 9.93427C28.2725 9.93427 33.5617 15.2235 33.5617 21.748C33.5617 24.1867 32.8228 26.4528 31.5566 28.3347L29.2179 25.996Z" fill="#D2D6E3"/><path fill-rule="evenodd" clip-rule="evenodd" d="M33.0327 25.2543C32.6897 26.3593 32.1889 27.3949 31.5566 28.3347L29.2179 25.996C29.9062 24.7882 30.3101 23.3972 30.3382 21.9143C30.3393 21.859 30.3398 21.8036 30.3398 21.748C30.3398 17.0029 26.4931 13.1562 21.748 13.1562C17.0029 13.1562 13.1562 17.0029 13.1562 21.748C13.1562 21.7977 13.1566 21.8473 13.1574 21.8968C13.1827 23.3863 13.5871 24.7834 14.2781 25.996L11.9394 28.3347C11.3071 27.3949 10.8063 26.3593 10.4633 25.2543C10.1195 24.1465 9.93427 22.9689 9.93427 21.748C9.93427 15.2235 15.2234 9.93427 21.748 9.93427C28.2725 9.93427 33.5617 15.2235 33.5617 21.748C33.5617 21.8406 33.5606 21.9329 33.5585 22.025C33.5327 23.1471 33.3504 24.2305 33.0327 25.2543Z" fill="#D2D6E3"/><path fill-rule="evenodd" clip-rule="evenodd" d="M21.748 34.8963L15.2962 41.348L21.748 47.7998L28.1997 41.348L21.748 34.8963ZM10.7397 41.348L21.748 52.3563L32.7562 41.348L21.748 30.3398L10.7397 41.348Z" fill="#D2D6E3"/><path fill-rule="evenodd" clip-rule="evenodd" d="M21.748 23.0825L9.38939 35.4412L21.748 47.7998L34.1066 35.4412L21.748 23.0825ZM4.8329 35.4412L21.748 52.3563L38.6631 35.4412L21.748 18.5261L4.8329 35.4412Z" fill="#D2D6E3"/><path fill-rule="evenodd" clip-rule="evenodd" d="M21.748 52.4234C21.748 52.4234 9.99387 40.92 6.03475 36.7836C2.29652 32.878 0 27.5812 0 21.748C0 9.73691 9.73691 0 21.748 0C33.7591 0 43.496 9.73691 43.496 21.748C43.496 27.5812 41.1995 32.878 37.4612 36.7836C33.5021 40.92 21.748 52.4234 21.748 52.4234ZM21.748 47.9098C22.8686 46.8086 24.312 45.388 25.8553 43.8629C29.2968 40.4621 33.1911 36.5853 35.1336 34.5558C38.3209 31.2258 40.2741 26.7184 40.2741 21.748C40.2741 11.5163 31.9797 3.22192 21.748 3.22192C11.5163 3.22192 3.22192 11.5163 3.22192 21.748C3.22192 26.7184 5.17503 31.2258 8.36233 34.5558C10.3049 36.5853 14.1992 40.4621 17.6407 43.8629C19.184 45.388 20.6274 46.8086 21.748 47.9098Z" fill="#D2D6E3"/></svg>